# xmcd
# 
# Track frame offsets:
#     150
#     12330
#     31995
# 
# Disc length: 750
# 
# Revision: 2
# Processed by: cddbd v1.5.2PL0 Copyright (c) Steve Scherf et al.
# Submitted via: BonkEnc v1.0.15
# 
DISCID=1902ec03
DTITLE=Robbie McIntosh - Oh Judy (SP) - The Robbie Mcintosh Band
DYEAR=1999
DGENRE=Blues/Rock
TTITLE0=Oh Judy
TTITLE1=Giant
TTITLE2=I Got a Rich Man's Woman (live)
EXTD=(c) 1999 Vandeleur Productions Ltd
EXTT0=
EXTT1=
EXTT2=
PLAYORDER=
